<svg width="33" height="46" viewBox="0 0 33 46" fill="none" xmlns="http://www.w3.org/2000/svg">
<path d="M32.3438 18.1934C32.3438 17.8501 32.2128 17.5197 31.9775 17.2697L21.1962 5.8146C20.9415 5.54408 20.5864 5.39062 20.2148 5.39062H6.73828C6.35339 5.39062 5.98683 5.55522 5.73104 5.8429L0.340418 11.9074C0.121199 12.1541 0 12.4726 0 12.8027V36.5664C0 37.6009 0.390551 38.5459 1.03195 39.2617C0.390551 39.9775 0 40.9226 0 41.957C0 44.1863 1.81368 46 4.04297 46H28.3008C30.5301 46 32.3438 44.1863 32.3438 41.957C32.3438 40.9226 31.9532 39.9775 31.3118 39.2617C31.9533 38.5459 32.3438 37.6009 32.3438 36.5664V18.1934ZM16.1719 37.9137C13.9426 37.9137 12.1289 36.1 12.1289 33.8707C12.1289 33.3157 12.2875 32.3044 13.6585 29.941C14.351 28.7471 15.0343 27.7558 15.063 27.7142C15.3147 27.35 15.7291 27.1325 16.1719 27.1325C16.6146 27.1325 17.0291 27.3499 17.2807 27.7142C17.3095 27.7558 17.9927 28.7471 18.6853 29.941C20.0563 32.3045 20.2148 33.3157 20.2148 33.8707C20.2148 36.1 18.4012 37.9137 16.1719 37.9137ZM26.1065 22.0143C25.5853 22.5052 24.922 22.7474 24.2588 22.7474C23.5416 22.7474 22.8269 22.4631 22.2965 21.8998L16.107 15.3234C15.0858 14.239 15.1384 12.5333 16.2215 11.5134C17.3072 10.4934 19.0142 10.5448 20.0315 11.6278L26.221 18.2042C27.2422 19.2887 27.1896 20.9943 26.1065 22.0143Z" fill="#1E1B1B"/>
<path d="M14.8242 33.8724C14.8242 34.614 15.4288 35.2186 16.1719 35.2186C16.9146 35.2186 17.5189 34.6145 17.5195 33.872C17.508 33.4585 16.9479 32.2846 16.1721 30.978C15.3958 32.286 14.8352 33.4604 14.8242 33.8724Z" fill="#1E1B1B"/>
<path d="M14.8242 0H6.73828C5.99402 0 5.39062 0.603391 5.39062 1.34766V2.69531H16.1719V1.34766C16.1719 0.603391 15.5685 0 14.8242 0Z" fill="#1E1B1B"/>
</svg>
