<svg width="44" height="39" viewBox="0 0 44 39" fill="none" xmlns="http://www.w3.org/2000/svg">
<path d="M38.5 1.83322C38.5 0.82077 37.6792 0 36.6668 0H29.3332C28.3208 0 27.5 0.82077 27.5 1.83322V5.5H38.5V1.83322Z" fill="#1E1B1B"/>
<path d="M16.5 1.83322C16.5 0.82077 15.6792 0 14.6668 0H7.33322C6.32077 0 5.5 0.82077 5.5 1.83322V5.5H16.5V1.83322Z" fill="#1E1B1B"/>
<path d="M0 7.33325V34.8333C0 35.8457 0.82077 36.6668 1.83322 36.6668H5.5V38.5H9.16678V36.6668H34.8332V38.5H38.5V36.6668H42.1668C43.1792 36.6668 44 35.8457 44 34.8333V7.33325H0ZM14.6668 33L18.3332 22H12.8332L25.6668 11L22 22H27.5L14.6668 33Z" fill="#1E1B1B"/>
</svg>
