<svg width="225" height="127" viewBox="0 0 225 127" fill="none" xmlns="http://www.w3.org/2000/svg">
<path d="M52.2793 61.2729C51.801 61.7559 51.4347 62.3388 51.2065 62.9801C50.9783 63.6214 50.8938 64.3054 50.9591 64.9832L50.9364 64.9604C51.0035 65.7582 50.8963 66.5612 50.6223 67.3131C50.3482 68.0651 49.914 68.748 49.3499 69.3142C48.7857 69.8804 48.1052 70.3162 47.3559 70.5912C46.6066 70.8662 45.8066 70.9737 45.0116 70.9064L45.0343 70.9292C44.0833 70.8404 43.1282 71.0481 42.2991 71.524C41.4701 71.9998 40.8075 72.7208 40.4016 73.5884C39.9958 74.4561 39.8665 75.4283 40.0314 76.3724C40.1962 77.3165 40.6472 78.1866 41.3229 78.8641C41.9985 79.5416 42.8659 79.9934 43.8068 80.158C44.7477 80.3226 45.7163 80.192 46.5805 79.7839C47.4447 79.3758 48.1625 78.7102 48.6359 77.8777C49.1094 77.0452 49.3154 76.0865 49.2261 75.1322L49.2501 75.155C49.183 74.3572 49.2901 73.5542 49.5642 72.8022C49.8382 72.0503 50.2724 71.3673 50.8366 70.8012C51.4007 70.235 52.0812 69.7992 52.8305 69.5242C53.5798 69.2492 54.3798 69.1416 55.1748 69.209L55.1509 69.1862C55.9277 69.2563 56.7096 69.1285 57.4241 68.8146C58.1386 68.5007 58.7625 68.0108 59.2382 67.3905C59.7138 66.7701 60.0257 66.0393 60.145 65.2657C60.2642 64.4922 60.187 63.7009 59.9204 62.9653C59.6538 62.2297 59.2065 61.5735 58.62 61.0576C58.0334 60.5417 57.3266 60.1827 56.5649 60.0139C55.8033 59.8451 55.0116 59.872 54.2631 60.0921C53.5146 60.3122 52.8336 60.7184 52.2831 61.2729H52.2793Z" fill="#1E1B1B"/>
<path d="M42.9678 67.9423L42.9439 67.9195C43.6196 67.9879 44.3019 67.9046 44.9417 67.6759C45.5814 67.4471 46.1624 67.0785 46.6428 66.5968C47.1232 66.115 47.4909 65.5321 47.7193 64.8903C47.9478 64.2485 48.0312 63.5637 47.9636 62.8855L47.9876 62.9083C47.9205 62.1105 48.0277 61.3075 48.3017 60.5556C48.5757 59.8036 49.01 59.1207 49.5741 58.5545C50.1383 57.9883 50.8188 57.5525 51.568 57.2775C52.3173 57.0025 53.1174 56.895 53.9124 56.9623L53.8884 56.9395C54.8395 57.0291 55.7949 56.8222 56.6245 56.3468C57.454 55.8714 58.1172 55.1509 58.5236 54.2833C58.9301 53.4158 59.06 52.4435 58.8956 51.4992C58.7312 50.5548 58.2806 49.6843 57.6052 49.0064C56.9297 48.3286 56.0623 47.8763 55.1214 47.7113C54.1804 47.5464 53.2116 47.6767 52.3471 48.0847C51.4827 48.4926 50.7647 49.1582 50.291 49.9907C49.8174 50.8232 49.6111 51.782 49.7004 52.7365L49.6777 52.7124C49.7451 53.5103 49.638 54.3134 49.3641 55.0654C49.0901 55.8175 48.6559 56.5005 48.0917 57.0668C47.5275 57.633 46.8469 58.0688 46.0975 58.3437C45.3481 58.6186 44.548 58.726 43.7529 58.6585L43.7757 58.6825C43.1 58.6142 42.4176 58.6974 41.7779 58.9262C41.1381 59.155 40.5571 59.5235 40.0767 60.0053C39.5963 60.487 39.2286 61.0699 39.0002 61.7117C38.7717 62.3536 38.6883 63.0383 38.7559 63.7165L38.7332 63.6937C38.8 64.4915 38.6927 65.2943 38.4186 66.0462C38.1445 66.7981 37.7103 67.4809 37.1462 68.0471C36.5821 68.6132 35.9017 69.049 35.1525 69.3241C34.4033 69.5991 33.6033 69.7069 32.8084 69.6397L32.8311 69.6625C31.88 69.5729 30.9246 69.7799 30.0951 70.2552C29.2655 70.7306 28.6023 71.4512 28.1959 72.3187C27.7894 73.1863 27.6595 74.1585 27.8239 75.1029C27.9883 76.0473 28.4389 76.9177 29.1144 77.5956C29.7898 78.2735 30.6572 78.7257 31.5982 78.8907C32.5392 79.0557 33.5079 78.9253 34.3724 78.5174C35.2368 78.1095 35.9548 77.4439 36.4285 76.6114C36.9022 75.7789 37.1084 74.82 37.0191 73.8656L37.0431 73.8884C36.976 73.0905 37.0831 72.2876 37.3572 71.5356C37.6312 70.7836 38.0654 70.1007 38.6296 69.5345C39.1937 68.9683 39.8742 68.5326 40.6235 68.2576C41.3728 67.9826 42.1728 67.875 42.9678 67.9423Z" fill="#1E1B1B"/>
<path d="M34.5087 65.4C34.9871 64.9171 35.3534 64.3342 35.5814 63.6928C35.8094 63.0515 35.8935 62.3675 35.8277 61.6897L35.8517 61.7125C35.7846 60.9145 35.8918 60.1113 36.166 59.3591C36.4401 58.6069 36.8746 57.9239 37.439 57.3577C38.0035 56.7914 38.6843 56.3557 39.4339 56.0809C40.1835 55.8061 40.9838 55.6988 41.779 55.7665L41.7551 55.7437C42.7058 55.8331 43.6608 55.626 44.49 55.1507C45.3191 54.6754 45.982 53.9549 46.3882 53.0877C46.7944 52.2204 46.9242 51.2485 46.7598 50.3045C46.5954 49.3605 46.1449 48.4903 45.4697 47.8127C44.7945 47.1351 43.9275 46.683 42.9868 46.518C42.0462 46.3531 41.0778 46.4833 40.2136 46.891C39.3494 47.2986 38.6316 47.9639 38.158 48.796C37.6843 49.6281 37.478 50.5866 37.5671 51.5407L37.5443 51.5179C37.6114 52.3158 37.5043 53.1187 37.2302 53.8707C36.9562 54.6227 36.522 55.3056 35.9578 55.8717C35.3937 56.4379 34.7132 56.8737 33.9639 57.1487C33.2146 57.4237 32.4146 57.5313 31.6196 57.4639L31.6423 57.4867C30.8655 57.4168 30.0837 57.5448 29.3693 57.8589C28.6549 58.1729 28.0311 58.6628 27.5556 59.2833C27.0801 59.9037 26.7683 60.6345 26.6492 61.4081C26.5301 62.1816 26.6075 62.9728 26.8741 63.7083C27.1408 64.4438 27.5882 65.0999 28.1747 65.6158C28.7613 66.1316 29.4682 66.4905 30.2297 66.6592C30.9913 66.8279 31.783 66.8009 32.5315 66.5808C33.2799 66.3607 33.9609 65.9545 34.5113 65.4H34.5087Z" fill="#1E1B1B"/>
<path d="M73.6079 52.7656H77.3566V71.0737H73.6079V52.7656Z" fill="#1E1B1B"/>
<path d="M79.4797 64.8045C79.4744 63.4888 79.8584 62.2012 80.5829 61.1047C81.3074 60.0081 82.3399 59.1521 83.5496 58.645C84.7593 58.1378 86.0917 58.0024 87.3782 58.2558C88.6646 58.5093 89.8472 59.1402 90.776 60.0687C91.7049 60.9971 92.3383 62.1814 92.596 63.4714C92.8537 64.7614 92.7241 66.0992 92.2236 67.3152C91.7231 68.5313 90.8743 69.5709 89.7846 70.3024C88.6949 71.0339 87.4134 71.4244 86.1025 71.4244C85.2322 71.4344 84.3687 71.2701 83.5625 70.9413C82.7562 70.6125 82.0234 70.1257 81.4067 69.5093C80.7901 68.893 80.3021 68.1594 79.9712 67.3516C79.6403 66.5438 79.4732 65.6779 79.4797 64.8045ZM88.9765 64.8045C88.9609 64.2374 88.779 63.6875 88.4536 63.2235C88.1283 62.7596 87.6739 62.4022 87.1473 62.196C86.6206 61.9898 86.0451 61.944 85.4926 62.0643C84.9402 62.1846 84.4353 62.4656 84.0412 62.8723C83.647 63.279 83.3811 63.7933 83.2765 64.3508C83.172 64.9084 83.2336 65.4845 83.4536 66.0071C83.6735 66.5297 84.0421 66.9757 84.5133 67.2892C84.9844 67.6027 85.5372 67.7699 86.1025 67.7699C86.4896 67.7803 86.8747 67.71 87.2334 67.5636C87.5922 67.4172 87.9168 67.1977 88.1868 66.9191C88.4569 66.6405 88.6664 66.3088 88.8024 65.9448C88.9383 65.5809 88.9976 65.1926 88.9765 64.8045Z" fill="#1E1B1B"/>
<path d="M107.666 58.5343V70.4416C107.666 74.6547 104.392 76.4357 101.068 76.4357C99.8981 76.5236 98.7265 76.2864 97.6818 75.7502C96.6372 75.2139 95.7598 74.3992 95.146 73.3956L98.3444 71.5398C98.6024 72.063 99.0135 72.4946 99.5226 72.7769C100.032 73.0592 100.615 73.1787 101.193 73.1194C101.563 73.1709 101.94 73.1382 102.295 73.0238C102.651 72.9094 102.976 72.7163 103.247 72.4587C103.518 72.2011 103.728 71.8856 103.861 71.5356C103.995 71.1855 104.048 70.8099 104.017 70.4365V69.2901C103.578 69.8292 103.019 70.2574 102.385 70.5405C101.752 70.8237 101.061 70.9538 100.368 70.9204C98.7191 70.8682 97.1553 70.1743 96.0075 68.9854C94.8596 67.7965 94.2178 66.2061 94.2178 64.5507C94.2178 62.8952 94.8596 61.3048 96.0075 60.1159C97.1553 58.927 98.7191 58.2331 100.368 58.1809C101.061 58.1475 101.752 58.2776 102.385 58.5608C103.019 58.8439 103.578 59.2721 104.017 59.8112V58.5318L107.666 58.5343ZM104.018 64.5526C104.043 63.9462 103.887 63.3462 103.57 62.8298C103.252 62.3133 102.788 61.904 102.237 61.6545C101.686 61.405 101.073 61.3268 100.477 61.4299C99.8808 61.5331 99.3293 61.8128 98.8931 62.2331C98.457 62.6535 98.1562 63.1952 98.0294 63.7885C97.9027 64.3819 97.9557 64.9997 98.1818 65.5625C98.4079 66.1254 98.7966 66.6074 99.298 66.9467C99.7994 67.2859 100.39 67.4668 100.995 67.466C101.389 67.4936 101.784 67.4381 102.155 67.3031C102.527 67.168 102.866 66.9565 103.15 66.682C103.435 66.4076 103.659 66.0763 103.809 65.7095C103.958 65.3427 104.03 64.9486 104.018 64.5526Z" fill="#1E1B1B"/>
<path d="M109.789 64.8045C109.784 63.4888 110.167 62.2012 110.892 61.1047C111.617 60.0081 112.649 59.1521 113.859 58.645C115.068 58.1378 116.401 58.0024 117.687 58.2558C118.974 58.5093 120.156 59.1402 121.085 60.0687C122.014 60.9971 122.647 62.1814 122.905 63.4714C123.163 64.7614 123.033 66.0992 122.533 67.3152C122.032 68.5313 121.183 69.5709 120.094 70.3024C119.004 71.0339 117.723 71.4244 116.412 71.4244C115.541 71.4344 114.678 71.2701 113.872 70.9413C113.065 70.6125 112.332 70.1257 111.716 69.5093C111.099 68.893 110.611 68.1594 110.28 67.3516C109.949 66.5438 109.782 65.6779 109.789 64.8045ZM119.286 64.8045C119.27 64.2374 119.088 63.6875 118.763 63.2235C118.437 62.7596 117.983 62.4022 117.456 62.196C116.93 61.9898 116.354 61.944 115.802 62.0643C115.249 62.1846 114.744 62.4656 114.35 62.8723C113.956 63.279 113.69 63.7933 113.586 64.3508C113.481 64.9084 113.543 65.4845 113.763 66.0071C113.983 66.5297 114.351 66.9757 114.822 67.2892C115.293 67.6027 115.846 67.7699 116.412 67.7699C116.799 67.7803 117.184 67.71 117.543 67.5636C117.901 67.4172 118.226 67.1977 118.496 66.9191C118.766 66.6405 118.976 66.3088 119.111 65.9448C119.247 65.5809 119.307 65.1926 119.286 64.8045Z" fill="#1E1B1B"/>
<path d="M124.783 55.1736C124.783 54.7271 124.915 54.2907 125.162 53.9195C125.409 53.5483 125.76 53.2589 126.171 53.0881C126.582 52.9172 127.034 52.8725 127.471 52.9596C127.907 53.0467 128.308 53.2617 128.622 53.5774C128.937 53.8931 129.151 54.2953 129.238 54.7332C129.325 55.1711 129.28 55.6249 129.11 56.0374C128.94 56.4499 128.651 56.8024 128.282 57.0505C127.912 57.2985 127.477 57.4309 127.032 57.4309C126.437 57.4249 125.869 57.1852 125.448 56.7632C125.028 56.3411 124.789 55.7704 124.783 55.1736ZM125.161 58.5342H128.911V71.0748H125.156L125.161 58.5342Z" fill="#1E1B1B"/>
<path d="M145.098 64.8045C145.141 65.6333 145.021 66.4625 144.744 67.2444C144.467 68.0264 144.038 68.7456 143.483 69.3609C142.928 69.9761 142.257 70.4751 141.51 70.8292C140.762 71.1834 139.951 71.3856 139.125 71.4244C138.431 71.4624 137.736 71.3448 137.092 71.0802C136.449 70.8155 135.871 70.4104 135.403 69.8942V76.0898H131.654V58.5341H135.403V59.7122C135.872 59.1964 136.449 58.7916 137.093 58.5271C137.736 58.2627 138.431 58.1452 139.125 58.1833C139.951 58.2219 140.762 58.424 141.51 58.7782C142.258 59.1324 142.929 59.6315 143.484 60.2469C144.039 60.8623 144.468 61.5817 144.745 62.3639C145.022 63.1461 145.142 63.9755 145.098 64.8045ZM141.349 64.8045C141.335 64.2175 141.148 63.648 140.812 63.1671C140.477 62.6862 140.007 62.3154 139.463 62.101C138.918 61.8865 138.322 61.8381 137.751 61.9616C137.179 62.0852 136.656 62.3753 136.247 62.7956C135.839 63.2159 135.563 63.7478 135.454 64.3247C135.346 64.9016 135.409 65.4978 135.636 66.0387C135.864 66.5797 136.245 67.0414 136.732 67.366C137.22 67.6906 137.792 67.8637 138.377 67.8636C138.778 67.8815 139.179 67.8141 139.553 67.6657C139.927 67.5172 140.265 67.2912 140.546 67.0023C140.827 66.7135 141.043 66.3683 141.182 65.9896C141.32 65.6108 141.377 65.2069 141.349 64.8045Z" fill="#1E1B1B"/>
<path d="M156.666 67.3115C156.666 70.1958 154.168 71.4245 151.469 71.4245C150.379 71.5236 149.284 71.2922 148.326 70.7602C147.368 70.2282 146.592 69.42 146.096 68.4401L149.344 66.5844C149.475 67.0373 149.757 67.4313 150.143 67.7005C150.529 67.9698 150.996 68.0981 151.464 68.0639C152.363 68.0639 152.814 67.7877 152.814 67.2874C152.814 65.9067 146.665 66.635 146.665 62.2965C146.665 59.5616 148.965 58.1834 151.564 58.1834C152.541 58.1524 153.508 58.3849 154.365 58.8568C155.222 59.3287 155.937 60.0227 156.436 60.8663L153.238 62.5967C153.097 62.2682 152.864 61.9884 152.566 61.7922C152.269 61.596 151.92 61.4921 151.564 61.4934C150.914 61.4934 150.514 61.7467 150.514 62.1951C150.519 63.6253 156.666 62.6714 156.666 67.3115Z" fill="#1E1B1B"/>
<path d="M170.36 58.5344V71.0751H166.611V69.8957C166.179 70.4161 165.629 70.8261 165.009 71.0921C164.388 71.3581 163.713 71.4725 163.039 71.4259C160.515 71.4259 158.369 69.6208 158.369 66.2323V58.5344H162.118V65.6813C162.086 65.98 162.12 66.2819 162.217 66.5661C162.314 66.8504 162.471 67.11 162.678 67.327C162.885 67.544 163.136 67.7132 163.415 67.8228C163.693 67.9323 163.992 67.9796 164.291 67.9614C165.666 67.9614 166.615 67.1596 166.615 65.3786V58.5382L170.36 58.5344Z" fill="#1E1B1B"/>
<path d="M191.855 63.3745V71.0737H188.106V63.7C188.106 62.446 187.507 61.6441 186.308 61.6441C185.058 61.6441 184.358 62.522 184.358 64.0015V71.0737H180.61V63.7C180.61 62.446 180.01 61.6441 178.81 61.6441C177.561 61.6441 176.861 62.522 176.861 64.0015V71.0737H173.113V58.533H176.861V59.6858C177.25 59.1744 177.76 58.7688 178.345 58.5061C178.93 58.2435 179.571 58.1321 180.21 58.1821C180.851 58.1507 181.49 58.2865 182.064 58.5764C182.637 58.8664 183.126 59.3005 183.483 59.8365C183.898 59.2757 184.448 58.8299 185.082 58.5405C185.716 58.2512 186.412 58.1279 187.107 58.1821C189.976 58.1834 191.855 60.2393 191.855 63.3745Z" fill="#1E1B1B"/>
<path d="M195.026 58.457C196.562 58.457 197.807 57.2071 197.807 55.6652C197.807 54.1233 196.562 52.8733 195.026 52.8733C193.489 52.8733 192.244 54.1233 192.244 55.6652C192.244 57.2071 193.489 58.457 195.026 58.457Z" fill="#1E1B1B"/>
</svg>
