<svg width="226" height="128" viewBox="0 0 226 128" fill="none" xmlns="http://www.w3.org/2000/svg">
<path d="M70.2 54.0291H74.0069V72.5076H70.2V54.0291Z" fill="#1E1B1B"/>
<path d="M76.1385 66.1774C76.1386 64.848 76.5303 63.5484 77.264 62.4436C77.9977 61.3387 79.0405 60.4782 80.2601 59.9712C81.4796 59.4642 82.8211 59.3335 84.1144 59.5957C85.4078 59.8579 86.5948 60.5011 87.525 61.4439C88.4552 62.3866 89.0866 63.5865 89.3394 64.8913C89.5921 66.1962 89.4548 67.5473 88.9447 68.7733C88.4346 69.9994 87.5748 71.0453 86.4742 71.7783C85.3736 72.5114 84.0818 72.8987 82.7626 72.8911C81.8876 72.898 81.02 72.7288 80.2108 72.3933C79.4015 72.0579 78.6669 71.563 78.0499 70.9377C77.433 70.3124 76.9461 69.5692 76.6179 68.7518C76.2897 67.9344 76.1267 67.0592 76.1385 66.1774ZM85.6812 66.1774C85.6663 65.6043 85.4839 65.0483 85.1571 64.579C84.8302 64.1097 84.3733 63.748 83.8434 63.539C83.3136 63.3301 82.7344 63.2832 82.1783 63.4042C81.6222 63.5252 81.1138 63.8088 80.7167 64.2194C80.3197 64.6301 80.0516 65.1496 79.946 65.713C79.8404 66.2764 79.902 66.8586 80.123 67.3869C80.344 67.9152 80.7148 68.3662 81.1888 68.6833C81.6628 69.0004 82.219 69.1696 82.788 69.1698C83.1753 69.1774 83.5601 69.1044 83.9182 68.9554C84.2763 68.8064 84.6001 68.5845 84.8692 68.3036C85.1384 68.0228 85.3472 67.689 85.4825 67.3232C85.6179 66.9573 85.6769 66.5673 85.6559 66.1774H85.6812Z" fill="#1E1B1B"/>
<path d="M104.45 59.8477V71.8811C104.45 76.1267 101.15 77.9298 97.8128 77.9298C96.6357 78.0272 95.4549 77.7915 94.4034 77.2492C93.352 76.707 92.4716 75.8798 91.8613 74.8607L95.0718 72.9936C95.332 73.5222 95.7459 73.9584 96.2582 74.244C96.7706 74.5295 97.3571 74.651 97.9397 74.5921C98.3109 74.6382 98.6875 74.6011 99.0428 74.4834C99.398 74.3657 99.723 74.1703 99.9946 73.9113C100.266 73.6523 100.478 73.336 100.614 72.985C100.75 72.634 100.807 72.2571 100.782 71.8811V70.7174C100.339 71.2587 99.7771 71.6884 99.1405 71.9726C98.5039 72.2567 97.8104 72.3874 97.1149 72.3543C95.4321 72.3543 93.8183 71.6806 92.6284 70.4815C91.4385 69.2824 90.77 67.6561 90.77 65.9603C90.77 64.2645 91.4385 62.6382 92.6284 61.4391C93.8183 60.24 95.4321 59.5663 97.1149 59.5663C97.8104 59.5332 98.5039 59.6639 99.1405 59.948C99.7771 60.2321 100.339 60.6619 100.782 61.2032V59.9244L104.45 59.8477ZM100.782 65.9219C100.808 65.3101 100.651 64.7046 100.332 64.1834C100.013 63.6621 99.5466 63.2489 98.9928 62.9969C98.439 62.7449 97.823 62.6656 97.2242 62.7692C96.6253 62.8727 96.0708 63.1545 95.6321 63.5782C95.1934 64.0019 94.8905 64.5481 94.7623 65.1467C94.6341 65.7453 94.6866 66.3688 94.9129 66.9371C95.1392 67.5054 95.529 67.9925 96.0322 68.3357C96.5355 68.6789 97.129 68.8626 97.7367 68.8631C98.1332 68.8919 98.5313 68.8366 98.9052 68.7007C99.2792 68.5648 99.6207 68.3514 99.9077 68.0742C100.195 67.797 100.421 67.4622 100.571 67.0915C100.722 66.7208 100.794 66.3223 100.782 65.9219Z" fill="#1E1B1B"/>
<path d="M106.594 66.1775C106.594 64.8491 106.985 63.5506 107.718 62.4463C108.45 61.342 109.491 60.4815 110.71 59.9737C111.928 59.4659 113.268 59.3337 114.56 59.5938C115.853 59.8539 117.04 60.4946 117.971 61.4348C118.903 62.375 119.536 63.5724 119.792 64.8756C120.047 66.1788 119.914 67.5291 119.407 68.7556C118.901 69.9822 118.045 71.0298 116.948 71.766C115.851 72.5021 114.562 72.8937 113.243 72.8912C112.367 72.8998 111.497 72.7319 110.686 72.3974C109.874 72.0628 109.137 71.5684 108.518 70.9431C107.899 70.3178 107.41 69.5742 107.079 68.7559C106.749 67.9375 106.584 67.0609 106.594 66.1775ZM116.137 66.1775C116.122 65.6038 115.939 65.0474 115.612 64.5778C115.284 64.1083 114.826 63.7466 114.296 63.538C113.765 63.3294 113.185 63.2833 112.629 63.4053C112.073 63.5274 111.564 63.8122 111.168 64.2241C110.771 64.6361 110.504 65.1567 110.4 65.721C110.296 66.2852 110.359 66.8678 110.582 67.3959C110.805 67.924 111.178 68.374 111.653 68.6896C112.129 69.0051 112.687 69.1722 113.256 69.1699C113.643 69.1775 114.028 69.1045 114.386 68.9555C114.744 68.8065 115.068 68.5846 115.337 68.3037C115.606 68.0229 115.815 67.6891 115.951 67.3233C116.086 66.9574 116.145 66.5674 116.124 66.1775H116.137Z" fill="#1E1B1B"/>
<path d="M121.657 56.4586C121.657 56.0084 121.789 55.5683 122.037 55.194C122.286 54.8197 122.638 54.5279 123.051 54.3556C123.464 54.1834 123.918 54.1383 124.356 54.2261C124.794 54.3139 125.197 54.5307 125.513 54.8491C125.829 55.1674 126.044 55.573 126.131 56.0146C126.218 56.4561 126.173 56.9138 126.002 57.3297C125.831 57.7456 125.542 58.1011 125.17 58.3513C124.799 58.6014 124.362 58.7349 123.916 58.7349C123.318 58.7282 122.748 58.4863 122.326 58.0608C121.903 57.6354 121.663 57.0603 121.657 56.4586ZM122.025 59.8474H125.832V72.5075H122.025V59.8474Z" fill="#1E1B1B"/>
<path d="M142.125 66.1777C142.168 67.0196 142.045 67.8618 141.764 68.6557C141.482 69.4495 141.047 70.1795 140.485 70.8035C139.922 71.4274 139.243 71.9331 138.485 72.2915C137.728 72.6498 136.908 72.8536 136.072 72.8913C135.363 72.9389 134.652 72.8244 133.993 72.5565C133.334 72.2886 132.743 71.8741 132.265 71.344V77.5973H128.458V59.8476H132.265V61.0369C132.744 60.5084 133.335 60.0958 133.994 59.8301C134.654 59.5643 135.364 59.4523 136.072 59.5024C136.905 59.5401 137.722 59.7428 138.476 60.0987C139.231 60.4546 139.909 60.9568 140.471 61.5767C141.033 62.1965 141.468 62.9219 141.752 63.7113C142.036 64.5008 142.163 65.3388 142.125 66.1777ZM138.318 66.1777C138.303 65.5837 138.115 65.0075 137.776 64.5211C137.438 64.0347 136.964 63.6599 136.415 63.4436C135.866 63.2273 135.266 63.1791 134.689 63.3051C134.113 63.4311 133.587 63.7257 133.176 64.1519C132.765 64.5782 132.489 65.1171 132.381 65.7012C132.273 66.2852 132.338 66.8884 132.569 67.4352C132.799 67.982 133.185 68.448 133.677 68.7748C134.17 69.1016 134.747 69.2747 135.336 69.2723C135.74 69.2896 136.143 69.2207 136.519 69.07C136.894 68.9194 137.234 68.6905 137.515 68.3982C137.797 68.106 138.014 67.7572 138.152 67.3745C138.291 66.9918 138.347 66.5839 138.318 66.1777Z" fill="#1E1B1B"/>
<path d="M153.711 68.7097C153.711 71.6253 151.173 72.8658 148.483 72.8658C147.386 72.9653 146.284 72.7309 145.32 72.1929C144.357 71.6549 143.575 70.838 143.077 69.8478L146.351 67.9808C146.481 68.4371 146.762 68.8347 147.148 69.107C147.534 69.3794 148 69.51 148.47 69.477C149.371 69.477 149.828 69.1956 149.828 68.6841C149.828 67.2902 143.648 68.0319 143.648 63.6457C143.648 60.8835 145.958 59.5024 148.572 59.5024C149.565 59.4575 150.553 59.6847 151.428 60.1598C152.304 60.6349 153.036 61.3401 153.546 62.2006L150.272 63.9398C150.128 63.6099 149.891 63.3293 149.592 63.1318C149.292 62.9344 148.942 62.8286 148.585 62.8272C147.925 62.8272 147.531 63.083 147.531 63.5306C147.531 64.9884 153.711 64.0293 153.711 68.7097Z" fill="#1E1B1B"/>
<path d="M167.505 59.8477V72.5077H163.698V71.3184C163.266 71.8449 162.716 72.2615 162.095 72.5347C161.473 72.8079 160.797 72.9301 160.12 72.8913C157.582 72.8913 155.412 71.0627 155.412 67.6483V59.8477H159.219V67.0728C159.189 67.3749 159.224 67.6799 159.323 67.9668C159.421 68.2537 159.58 68.5156 159.789 68.7345C159.998 68.9533 160.251 69.1239 160.532 69.2345C160.812 69.345 161.113 69.3928 161.414 69.3747C162.784 69.3747 163.749 68.5562 163.749 66.8171V59.8477H167.505Z" fill="#1E1B1B"/>
<path d="M189.077 64.7325V72.5076H185.27V65.065C185.27 63.7862 184.674 62.9934 183.468 62.9934C182.263 62.9934 181.501 63.8757 181.501 65.3719V72.5076H177.694V65.065C177.694 63.7862 177.098 62.9934 175.892 62.9934C174.687 62.9934 173.926 63.8757 173.926 65.3719V72.5076H170.119V59.8475H173.926V61.0112C174.32 60.4971 174.835 60.09 175.424 59.8265C176.013 59.5631 176.658 59.4517 177.301 59.5023C177.945 59.4684 178.586 59.6039 179.163 59.8953C179.739 60.1868 180.23 60.6242 180.588 61.1647C181.006 60.6 181.559 60.1514 182.196 59.8607C182.833 59.57 183.533 59.4466 184.23 59.5023C187.199 59.5023 189.077 61.5739 189.077 64.7325Z" fill="#1E1B1B"/>
<path d="M47.5231 50.7042V45.2693H30.5188V82.6101H47.5231V77.1752C44.0397 77.1752 40.6991 75.7807 38.236 73.2986C35.7729 70.8165 34.3892 67.4499 34.3892 63.9397C34.3892 60.4294 35.7729 57.0629 38.236 54.5808C40.6991 52.0986 44.0397 50.7042 47.5231 50.7042Z" fill="#1E1B1B"/>
<path d="M47.5232 50.7041V77.1751C51.0065 77.1751 54.3472 75.7807 56.8103 73.2985C59.2733 70.8164 60.6571 67.4499 60.6571 63.9396C60.6571 60.4293 59.2733 57.0628 56.8103 54.5807C54.3472 52.0986 51.0065 50.7041 47.5232 50.7041Z" fill="#1E1B1B"/>
<path d="M192.275 59.7707C193.817 59.7707 195.067 58.5112 195.067 56.9574C195.067 55.4036 193.817 54.144 192.275 54.144C190.734 54.144 189.484 55.4036 189.484 56.9574C189.484 58.5112 190.734 59.7707 192.275 59.7707Z" fill="#1E1B1B"/>
</svg>
