<svg width="226" height="127" viewBox="0 0 226 127" fill="none" xmlns="http://www.w3.org/2000/svg">
<path d="M78.0547 56.0654H82.1281V72.5329H78.0547V56.0654ZM83.7524 66.3386C83.7524 62.2597 86.2903 59.8149 90.0973 59.8149C93.9042 59.8149 96.4422 62.2597 96.4422 66.3386C96.4422 70.4174 93.993 72.8875 90.0973 72.8875C86.2015 72.8875 83.7524 70.5061 83.7524 66.3386ZM92.4068 66.3386C92.4068 64.0964 91.5312 62.779 90.1353 62.779C88.7395 62.779 87.8766 64.0458 87.8766 66.3386C87.8766 68.6313 88.7395 69.8854 90.1353 69.8854C91.5312 69.8854 92.4322 68.6313 92.4322 66.3512L92.4068 66.3386ZM98.0664 73.3816H102C102.179 73.8043 102.492 74.157 102.891 74.3857C103.289 74.6144 103.752 74.7067 104.208 74.6483C105.769 74.6483 106.581 73.8123 106.581 72.5709V70.2908H106.594C106.258 71.0007 105.714 71.5925 105.035 71.9882C104.355 72.3839 103.572 72.5649 102.787 72.5075C99.8049 72.5075 97.8253 70.2401 97.8253 66.3386C97.8253 62.437 99.7161 60.0049 102.901 60.0049C103.706 59.9619 104.504 60.1691 105.186 60.5979C105.868 61.0267 106.4 61.6559 106.708 62.399H106.594V60.1062H110.629V72.4442C110.629 75.421 107.99 77.2831 104.107 77.2831C100.579 77.2704 98.3202 75.6617 98.0918 73.3942L98.0664 73.3816ZM106.594 66.3386C106.594 64.3498 105.68 63.0957 104.234 63.0957C102.787 63.0957 101.899 64.3625 101.899 66.3386C101.899 68.3146 102.774 69.48 104.234 69.48C105.693 69.48 106.594 68.4033 106.594 66.3386ZM112.241 66.3386C112.241 62.2597 114.779 59.8149 118.586 59.8149C122.393 59.8149 124.931 62.2597 124.931 66.3386C124.931 70.4174 122.469 72.8875 118.586 72.8875C114.703 72.8875 112.266 70.5061 112.266 66.3386H112.241ZM120.895 66.3386C120.895 64.0964 120.007 62.779 118.624 62.779C117.241 62.779 116.365 64.0458 116.365 66.3386C116.365 68.6313 117.228 69.8854 118.624 69.8854C120.02 69.8854 120.921 68.6313 120.921 66.3512L120.895 66.3386ZM126.58 57.1041C126.563 56.6899 126.669 56.2799 126.887 55.9268C127.105 55.5737 127.423 55.2937 127.802 55.1228C128.18 54.9518 128.601 54.8978 129.01 54.9677C129.42 55.0376 129.799 55.2281 130.099 55.5148C130.399 55.8015 130.606 56.1712 130.694 56.5764C130.781 56.9816 130.746 57.4038 130.591 57.7886C130.437 58.1734 130.17 58.5032 129.826 58.7356C129.482 58.9681 129.077 59.0925 128.661 59.0929C128.396 59.0996 128.132 59.0536 127.884 58.9577C127.637 58.8617 127.411 58.7176 127.22 58.5337C127.029 58.3499 126.876 58.13 126.77 57.8867C126.665 57.6435 126.609 57.3818 126.606 57.1168L126.58 57.1041ZM126.58 60.0936H130.704V72.5835H126.644L126.58 60.0936ZM145.539 66.3386C145.539 70.4048 143.712 72.7609 140.603 72.7609C139.807 72.8099 139.015 72.6139 138.334 72.1993C137.653 71.7848 137.116 71.1716 136.796 70.4428H136.719V76.5991H132.646V60.1316H136.694V62.361H136.77C137.08 61.6178 137.611 60.9879 138.293 60.5572C138.974 60.1265 139.772 59.916 140.577 59.9542C143.775 59.9289 145.615 62.2724 145.615 66.3512L145.539 66.3386ZM141.389 66.3386C141.389 64.3625 140.463 63.0831 139.029 63.0831C137.595 63.0831 136.694 64.3498 136.681 66.3386C136.669 68.3273 137.595 69.5814 139.029 69.5814C140.463 69.5814 141.465 68.4033 141.465 66.3512L141.389 66.3386ZM152.493 59.8022C155.906 59.8022 158.026 61.411 158.051 63.9951H154.333C154.333 63.0957 153.584 62.5384 152.467 62.5384C151.351 62.5384 150.818 62.9691 150.818 63.6151C150.818 64.2611 151.287 64.4638 152.226 64.6538L154.84 65.1858C157.378 65.7179 158.394 66.7312 158.394 68.6187C158.394 71.1521 156.046 72.8749 152.556 72.8749C149.067 72.8749 146.795 71.2028 146.63 68.6567H150.577C150.691 69.5814 151.427 70.1261 152.62 70.1261C153.813 70.1261 154.371 69.7461 154.371 69.0747C154.371 68.4033 153.99 68.2893 153.013 68.0866L150.653 67.5926C148.204 67.0733 146.922 65.7939 146.922 63.8811C146.998 61.3983 149.13 59.8149 152.569 59.8149L152.493 59.8022ZM172.035 72.5709H168.089V70.2274H168.012C167.791 71.0091 167.31 71.6922 166.648 72.1643C165.986 72.6364 165.183 72.8691 164.37 72.8242C163.757 72.8441 163.146 72.7344 162.579 72.5021C162.011 72.2699 161.499 71.9204 161.076 71.4766C160.653 71.0328 160.328 70.5048 160.124 69.9271C159.92 69.3494 159.841 68.7351 159.891 68.1246V60.1062H163.964V67.2506C163.964 68.72 164.738 69.518 166.007 69.518C166.305 69.5158 166.599 69.4498 166.869 69.3246C167.139 69.1993 167.379 69.0177 167.572 68.792C167.766 68.5662 167.909 68.3016 167.991 68.0161C168.074 67.7305 168.094 67.4306 168.05 67.1366V60.1062H172.111L172.035 72.5709ZM174.002 60.0936H177.961V62.5004H178.05C178.269 61.7294 178.737 61.0525 179.383 60.5758C180.028 60.099 180.813 59.8492 181.616 59.8656C182.422 59.7956 183.224 60.0282 183.867 60.5178C184.51 61.0075 184.947 61.7189 185.093 62.513H185.27C185.524 61.7146 186.035 61.0223 186.723 60.5435C187.412 60.0647 188.239 59.8264 189.077 59.8656C189.634 59.8444 190.19 59.9409 190.707 60.1488C191.224 60.3566 191.691 60.6711 192.078 61.0717C192.465 61.4723 192.763 61.9499 192.952 62.4734C193.141 62.9968 193.218 63.5542 193.176 64.1091V72.5835H189.077V65.1478C189.077 63.8811 188.481 63.1717 187.326 63.1717C187.07 63.1675 186.816 63.2187 186.582 63.3216C186.347 63.4246 186.138 63.577 185.968 63.7683C185.798 63.9596 185.671 64.1853 185.597 64.43C185.523 64.6747 185.502 64.9325 185.537 65.1858V72.5835H181.654V65.1098C181.654 63.8431 181.032 63.1717 179.915 63.1717C179.657 63.1697 179.4 63.2229 179.164 63.3278C178.927 63.4328 178.716 63.587 178.544 63.7802C178.372 63.9733 178.244 64.201 178.167 64.4478C178.091 64.6946 178.068 64.9549 178.101 65.2112V72.5835H174.027L174.002 60.0936Z" fill="#1E1B1B"/>
<path d="M69.9967 57.1424C69.9968 54.6212 69.2341 52.1587 67.8086 50.0776C66.383 47.9964 64.3609 46.3936 62.0073 45.479C59.6537 44.5644 57.0783 44.3807 54.6183 44.952C52.1584 45.5233 49.9286 46.8229 48.2211 48.6806H32.3843V82.0463H65.8218V66.4528C67.1342 65.2811 68.1843 63.8462 68.9037 62.2419C69.6231 60.6377 69.9955 58.9 69.9967 57.1424ZM63.563 57.1424C63.5655 58.3505 63.2089 59.5322 62.5384 60.5379C61.8678 61.5436 60.9134 62.3282 59.796 62.7923C58.6786 63.2563 57.4484 63.379 56.2611 63.1449C55.0738 62.9107 53.9827 62.3302 53.1261 61.4768C52.2694 60.6235 51.6856 59.5356 51.4485 58.3508C51.2115 57.1661 51.3319 55.9378 51.7945 54.8214C52.257 53.705 53.041 52.7507 54.0471 52.0793C55.0532 51.4078 56.2363 51.0494 57.4465 51.0494C59.0665 51.0494 60.6204 51.6909 61.7671 52.8332C62.9137 53.9755 63.5596 55.5252 63.563 57.1424ZM59.3881 75.6239H38.818V55.1029H45.0867C44.9656 55.7761 44.902 56.4584 44.8964 57.1424C44.8997 60.464 46.2231 63.6485 48.5759 65.9973C50.9288 68.346 54.1191 69.667 57.4465 69.6703C58.0971 69.6669 58.7463 69.6118 59.3881 69.5056V75.6239Z" fill="#1E1B1B"/>
</svg>
