<svg width="226" height="127" viewBox="0 0 226 127" fill="none" xmlns="http://www.w3.org/2000/svg">
<path d="M81.0493 55.8247H84.8562V71.1901H81.0493V55.8247ZM86.3663 65.3885C86.3663 61.5883 88.7012 59.3209 92.3051 59.3209C95.909 59.3209 98.2439 61.5883 98.2439 65.3885C98.2439 69.1887 95.9598 71.4688 92.3051 71.4688C88.6505 71.4688 86.3663 69.252 86.3663 65.3885ZM94.4243 65.3885C94.4243 63.2984 93.5995 62.0697 92.3051 62.0697C91.0108 62.0697 90.1986 63.3364 90.1986 65.3885C90.1986 67.4406 90.9981 68.682 92.3051 68.682C93.6122 68.682 94.4243 67.5166 94.4243 65.4012V65.3885ZM99.6779 71.9375H103.333C103.506 72.3232 103.801 72.6426 104.171 72.848C104.541 73.0534 104.968 73.1339 105.388 73.0776C106.835 73.0776 107.596 72.2922 107.596 71.1521V69.024H107.52C107.217 69.6763 106.725 70.2228 106.107 70.5931C105.49 70.9634 104.775 71.1405 104.056 71.1015C101.277 71.1015 99.4368 68.986 99.4368 65.3505C99.4368 61.715 101.188 59.4222 104.107 59.4222C104.848 59.3932 105.581 59.5912 106.207 59.9896C106.833 60.3881 107.322 60.968 107.609 61.6517V59.5362H111.416V71.0635C111.416 73.8376 108.967 75.5604 105.35 75.5604C101.987 75.5604 99.8936 74.0529 99.6779 71.9502V71.9375ZM107.609 65.3758C107.609 63.5264 106.759 62.361 105.414 62.361C104.069 62.361 103.244 63.5138 103.244 65.3758C103.244 67.2379 104.056 68.2893 105.414 68.2893C106.771 68.2893 107.609 67.2633 107.609 65.3885V65.3758ZM112.85 65.3758C112.85 61.5757 115.185 59.3082 118.789 59.3082C122.393 59.3082 124.74 61.5757 124.74 65.3758C124.74 69.176 122.456 71.4562 118.789 71.4562C115.121 71.4562 112.85 69.252 112.85 65.3885V65.3758ZM120.908 65.3758C120.908 63.2857 120.083 62.057 118.789 62.057C117.494 62.057 116.746 63.3364 116.746 65.4012C116.746 67.466 117.545 68.6947 118.839 68.6947C120.134 68.6947 120.908 67.5166 120.908 65.4012V65.3758ZM126.187 56.7748C126.177 56.3911 126.281 56.0131 126.487 55.6887C126.692 55.3643 126.99 55.1081 127.341 54.9526C127.693 54.7971 128.082 54.7493 128.461 54.8152C128.84 54.8811 129.191 55.0579 129.469 55.3229C129.747 55.588 129.94 55.9296 130.023 56.3043C130.106 56.679 130.076 57.0699 129.937 57.4276C129.797 57.7852 129.555 58.0935 129.239 58.3133C128.924 58.5331 128.551 58.6545 128.166 58.6622C127.912 58.6797 127.656 58.6443 127.415 58.5585C127.175 58.4726 126.955 58.338 126.769 58.1631C126.583 57.9882 126.435 57.7769 126.335 57.5423C126.235 57.3078 126.184 57.0551 126.187 56.8001V56.7748ZM126.187 59.5616H129.994V71.1901H126.187V59.5616ZM143.813 65.3758C143.813 69.176 142.125 71.3421 139.232 71.3421C138.49 71.3897 137.751 71.2086 137.116 70.8235C136.48 70.4384 135.979 69.8677 135.679 69.1887H135.603V74.9143H131.796V59.5362H135.603V61.6137H135.679C135.965 60.9234 136.457 60.3379 137.088 59.9368C137.719 59.5356 138.459 59.3382 139.206 59.3716C142.125 59.4222 143.864 61.601 143.864 65.4012L143.813 65.3758ZM140.006 65.3758C140.006 63.5264 139.156 62.3484 137.823 62.3484C136.491 62.3484 135.641 63.5391 135.628 65.3758C135.615 67.2126 136.491 68.3907 137.823 68.3907C139.156 68.3907 140.006 67.2379 140.006 65.4012V65.3758ZM150.348 59.2956C153.508 59.2956 155.424 60.7903 155.513 63.1844H152.049C152.049 62.361 151.363 61.8417 150.31 61.8417C149.257 61.8417 148.787 62.247 148.787 62.8424C148.787 63.4378 149.206 63.6278 150.056 63.8051L152.493 64.2991C154.815 64.7932 155.805 65.7305 155.805 67.4913C155.805 69.8981 153.609 71.4435 150.373 71.4435C147.138 71.4435 145.018 69.8981 144.853 67.5293H148.521C148.635 68.3907 149.32 68.8974 150.437 68.8974C151.554 68.8974 152.061 68.53 152.061 67.922C152.061 67.3139 151.706 67.1873 150.792 66.9973L148.597 66.5286C146.325 66.0599 145.133 64.8565 145.133 63.0831C145.158 60.803 147.201 59.3209 150.348 59.3209V59.2956ZM168.507 71.1648H164.84V68.9987H164.764C164.562 69.726 164.117 70.3625 163.503 70.8026C162.889 71.2427 162.143 71.4599 161.388 71.4181C160.81 71.451 160.231 71.3595 159.691 71.1499C159.151 70.9403 158.663 70.6174 158.258 70.2031C157.854 69.7888 157.544 69.2928 157.348 68.7484C157.153 68.2041 157.076 67.6242 157.124 67.0479V59.5362H160.931V66.1739C160.931 67.5546 161.642 68.2893 162.822 68.2893C163.099 68.2899 163.373 68.2314 163.625 68.1178C163.877 68.0041 164.102 67.838 164.285 67.6305C164.467 67.4229 164.603 67.1788 164.684 66.9145C164.764 66.6502 164.787 66.3718 164.751 66.0979V59.5362H168.558L168.507 71.1648ZM170.347 59.5362H174.027V61.7783H174.103C174.305 61.0607 174.74 60.4302 175.339 59.9855C175.939 59.5409 176.669 59.3071 177.415 59.3209C178.175 59.2602 178.93 59.4871 179.529 59.9565C180.129 60.426 180.529 61.1035 180.651 61.8543H180.727C180.958 61.0955 181.434 60.4347 182.082 59.976C182.73 59.5173 183.512 59.2868 184.306 59.3209C184.824 59.3035 185.339 59.3951 185.819 59.5896C186.299 59.7842 186.733 60.0773 187.092 60.4501C187.451 60.8228 187.727 61.2668 187.903 61.7531C188.079 62.2395 188.15 62.7574 188.113 63.2731V71.1901H184.306V64.2865C184.306 63.0197 183.735 62.437 182.669 62.437C182.431 62.435 182.196 62.4839 181.979 62.5805C181.762 62.677 181.568 62.8189 181.41 62.9965C181.252 63.1742 181.135 63.3836 181.065 63.6105C180.996 63.8374 180.976 64.0765 181.007 64.3118V71.1901H177.39V64.2358C177.39 63.0704 176.819 62.437 175.778 62.437C175.538 62.4371 175.3 62.4881 175.081 62.5865C174.862 62.685 174.666 62.8288 174.507 63.0083C174.347 63.1879 174.228 63.3992 174.156 63.6282C174.084 63.8573 174.062 64.0989 174.091 64.3371V71.1901H170.284L170.347 59.5362Z" fill="#1E1B1B"/>
<path d="M70.4029 56.5215C69.7571 55.0475 68.9024 53.6738 67.8649 52.4426C66.3313 50.5683 64.4174 49.0394 62.2493 47.9567C60.0811 46.8739 57.7078 46.2617 55.2856 46.1605C52.8633 46.0593 50.4471 46.4713 48.1958 47.3694C45.9446 48.2675 43.9094 49.6313 42.2242 51.3712C40.5391 53.111 39.2421 55.1873 38.4187 57.4636C37.5954 59.7398 37.2642 62.1643 37.4471 64.5774C37.63 66.9906 38.3229 69.3378 39.48 71.4644C40.6371 73.591 42.2322 75.4489 44.1604 76.9159C45.3977 77.8759 46.7648 78.6563 48.2212 79.234C50.263 80.0692 52.4483 80.4995 54.6549 80.5007C59.2097 80.4906 63.5748 78.6782 66.7932 75.4608C70.0116 72.2433 71.8208 67.8833 71.8241 63.3365C71.8275 60.9912 71.3435 58.6707 70.4029 56.5215ZM54.6422 49.6432C56.6238 49.643 58.5814 50.0753 60.378 50.9099C59.9399 51.0989 59.4793 51.2308 59.0075 51.3026C57.455 51.5269 56.0168 52.2464 54.9076 53.3536C53.7984 54.4609 53.0777 55.8965 52.8529 57.4462C52.7543 58.3154 52.3583 59.1239 51.7318 59.7354C51.1053 60.347 50.2867 60.7241 49.414 60.8031C47.8615 61.0274 46.4234 61.7469 45.3142 62.8541C44.205 63.9613 43.4842 65.397 43.2595 66.9467C43.1834 67.7731 42.8302 68.5497 42.257 69.1508C41.268 67.0648 40.8237 64.763 40.9655 62.4596C41.1073 60.1561 41.8305 57.9259 43.0678 55.9765C44.3052 54.0271 46.0164 52.4218 48.0423 51.31C50.0683 50.1982 52.343 49.6161 54.6549 49.6178L54.6422 49.6432ZM44.1478 72.2036C44.3 72.0643 44.4523 71.9376 44.6046 71.7856C45.7335 70.693 46.4582 69.2507 46.6603 67.6941C46.7423 66.8191 47.1337 66.0018 47.7643 65.3886C48.3712 64.758 49.1881 64.3706 50.0612 64.2992C51.6137 64.0749 53.0518 63.3554 54.161 62.2482C55.2702 61.1409 55.991 59.7053 56.2157 58.1556C56.2706 57.2404 56.6641 56.3782 57.3197 55.7361C57.9416 55.1178 58.7662 54.7444 59.642 54.6848C61.0682 54.4889 62.3983 53.856 63.4489 52.8733C64.6451 53.864 65.6586 55.0558 66.4437 56.3948C66.3954 56.4599 66.3401 56.5194 66.2787 56.5722C65.673 57.2083 64.8572 57.6043 63.9818 57.6869C62.4278 57.9073 60.9875 58.6255 59.8775 59.7335C58.7676 60.8414 58.0481 62.2792 57.8273 63.8305C57.7379 64.7026 57.3492 65.517 56.7271 66.1357C56.105 66.7544 55.2877 67.1393 54.4138 67.2254C52.8568 67.448 51.4132 68.166 50.2976 69.2728C49.182 70.3796 48.4538 71.8162 48.2212 73.369C48.1529 73.9881 47.9399 74.5825 47.5994 75.1044C46.2974 74.3328 45.1313 73.3528 44.1478 72.2036ZM54.6422 77.0932C53.3545 77.0946 52.073 76.9155 50.8353 76.5612C51.2587 75.7733 51.5339 74.9146 51.6474 74.0277C51.7363 73.1576 52.1232 72.3447 52.7428 71.7263C53.3623 71.1078 54.1766 70.7217 55.0483 70.6329C56.603 70.4111 58.0441 69.6927 59.1558 68.5852C60.2675 67.4778 60.9901 66.0408 61.2155 64.4892C61.3044 63.6191 61.6913 62.8063 62.3108 62.1878C62.9304 61.5694 63.7447 61.1832 64.6163 61.0944C65.7864 60.9425 66.9015 60.5076 67.8649 59.8277C68.3999 61.8518 68.4632 63.9713 68.0502 66.0237C67.6371 68.0761 66.7585 70.0067 65.4819 71.6675C64.2053 73.3283 62.5646 74.6751 60.6856 75.6047C58.8066 76.5342 56.7393 77.0217 54.6422 77.0299V77.0932Z" fill="#1E1B1B"/>
</svg>
