<svg width="225" height="126" viewBox="0 0 225 126" fill="none" xmlns="http://www.w3.org/2000/svg">
<path d="M85.6773 72.0051C84.9265 72.0456 84.184 71.8334 83.5694 71.4029C83.3126 71.2137 83.106 70.9651 82.9674 70.6788C82.8289 70.3924 82.7626 70.0768 82.7742 69.7593V58.1285C82.7681 58.0793 82.7733 58.0293 82.7895 57.9824C82.8058 57.9355 82.8326 57.8928 82.8678 57.8578C82.9031 57.8227 82.946 57.796 82.9932 57.7799C83.0404 57.7638 83.0907 57.7586 83.1403 57.7647H85.2607C85.5006 57.7647 85.6141 57.8902 85.6141 58.1285V68.8559C85.6141 69.3327 85.8287 69.5711 86.2705 69.5711C86.4578 69.5788 86.6451 69.5576 86.8259 69.5083C87.0783 69.5083 87.2171 69.5836 87.2298 69.8095L87.4191 71.3778C87.4282 71.4235 87.4273 71.4707 87.4165 71.516C87.4058 71.5614 87.3853 71.6039 87.3566 71.6408C87.3279 71.6776 87.2916 71.7079 87.2501 71.7297C87.2086 71.7514 87.163 71.764 87.1161 71.7667C86.6517 71.9192 86.1664 71.9997 85.6773 72.0051Z" fill="#1E1B1B"/>
<path d="M97.6051 70.6628C96.5396 71.5379 95.2006 72.0166 93.8185 72.0166C92.4364 72.0166 91.0974 71.5379 90.0319 70.6628C89.0954 69.7231 88.5701 68.4537 88.5701 67.131C88.5701 65.8082 89.0954 64.5388 90.0319 63.5991C91.0995 62.7285 92.4377 62.2527 93.8185 62.2527C95.1994 62.2527 96.5375 62.7285 97.6051 63.5991C98.52 64.5475 99.0308 65.8107 99.0308 67.1247C99.0308 68.4387 98.52 69.7019 97.6051 70.6503V70.6628ZM92.0262 69.0067C92.5207 69.4519 93.164 69.6985 93.8311 69.6985C94.4983 69.6985 95.1416 69.4519 95.6361 69.0067C96.0836 68.4952 96.3301 67.8402 96.3301 67.1623C96.3301 66.4845 96.0836 65.8294 95.6361 65.318C95.1416 64.8727 94.4983 64.6261 93.8311 64.6261C93.164 64.6261 92.5207 64.8727 92.0262 65.318C91.5787 65.8294 91.3322 66.4845 91.3322 67.1623C91.3322 67.8402 91.5787 68.4952 92.0262 69.0067Z" fill="#1E1B1B"/>
<path d="M110.707 62.57C110.946 62.57 111.06 62.6955 111.06 62.9339V71.9298C111.082 72.537 110.968 73.1414 110.725 73.6992C110.483 74.2569 110.119 74.754 109.659 75.1543C108.638 76.0193 107.326 76.4677 105.986 76.409C104.776 76.4513 103.582 76.1228 102.565 75.468C102.131 75.1847 101.761 74.8158 101.476 74.3841C101.192 73.9524 101 73.4672 100.912 72.9586C100.912 72.7077 100.912 72.5948 101.253 72.5948H103.373C103.463 72.5978 103.55 72.6267 103.624 72.6779C103.698 72.7291 103.756 72.8005 103.79 72.8834C103.927 73.2644 104.201 73.5816 104.56 73.7742C104.996 73.9981 105.482 74.1102 105.973 74.1004C106.27 74.1165 106.566 74.0738 106.846 73.9747C107.125 73.8756 107.382 73.7221 107.602 73.5232C107.802 73.3152 107.958 73.0689 108.06 72.7994C108.162 72.5299 108.208 72.2426 108.195 71.9549V71.1645C107.436 71.7196 106.512 72.0066 105.569 71.98C104.91 72.0038 104.253 71.895 103.637 71.66C103.021 71.425 102.459 71.0686 101.985 70.6124C101.075 69.6766 100.566 68.426 100.566 67.1244C100.566 65.8229 101.075 64.5723 101.985 63.6365C102.461 63.1843 103.024 62.8314 103.639 62.5987C104.255 62.366 104.911 62.2581 105.569 62.2814C106.539 62.256 107.488 62.5615 108.258 63.1472V62.9464C108.252 62.8983 108.257 62.8496 108.273 62.8037C108.288 62.7578 108.314 62.7159 108.348 62.681C108.381 62.6462 108.423 62.6193 108.468 62.6023C108.514 62.5852 108.563 62.5785 108.611 62.5826L110.707 62.57ZM105.809 69.7467C106.134 69.7567 106.458 69.6956 106.757 69.5677C107.055 69.4398 107.322 69.2482 107.538 69.0064C107.958 68.4678 108.186 67.8058 108.186 67.1244C108.186 66.4431 107.958 65.7811 107.538 65.2424C107.323 65.004 107.058 64.8153 106.761 64.6895C106.465 64.5638 106.144 64.5042 105.822 64.5147C105.493 64.5045 105.166 64.5653 104.863 64.6932C104.56 64.821 104.288 65.0127 104.067 65.255C103.603 65.7703 103.358 66.4454 103.386 67.137C103.363 67.8218 103.602 68.4898 104.055 69.0064C104.276 69.2481 104.548 69.4394 104.851 69.5671C105.153 69.6949 105.48 69.7561 105.809 69.7467Z" fill="#1E1B1B"/>
<path d="M121.953 70.6626C120.885 71.5332 119.547 72.009 118.166 72.009C116.785 72.009 115.447 71.5332 114.38 70.6626C113.464 69.7121 112.953 68.4468 112.953 67.1307C112.953 65.8146 113.464 64.5493 114.38 63.5988C115.448 62.7305 116.786 62.2561 118.166 62.2561C119.546 62.2561 120.884 62.7305 121.953 63.5988C122.868 64.5472 123.378 65.8104 123.378 67.1244C123.378 68.4384 122.868 69.7016 121.953 70.65V70.6626ZM116.361 69.0064C116.603 69.2352 116.888 69.4141 117.2 69.5325C117.512 69.651 117.845 69.7067 118.179 69.6965C118.51 69.705 118.841 69.6485 119.15 69.5301C119.46 69.4117 119.743 69.2337 119.984 69.0064C120.424 68.4915 120.666 67.8378 120.666 67.1621C120.666 66.4863 120.424 65.8326 119.984 65.3177C119.743 65.0904 119.46 64.9125 119.15 64.7941C118.841 64.6756 118.51 64.6191 118.179 64.6276C117.845 64.6174 117.512 64.6732 117.2 64.7916C116.888 64.9101 116.603 65.0889 116.361 65.3177C115.921 65.8326 115.679 66.4863 115.679 67.1621C115.679 67.8378 115.921 68.4915 116.361 69.0064Z" fill="#1E1B1B"/>
<path d="M127.935 60.4373C127.602 60.7276 127.173 60.8876 126.73 60.8876C126.287 60.8876 125.858 60.7276 125.525 60.4373C125.373 60.2954 125.253 60.1243 125.171 59.9344C125.088 59.7445 125.046 59.54 125.046 59.3332C125.046 59.1264 125.088 58.9218 125.171 58.732C125.253 58.5421 125.373 58.371 125.525 58.2291C125.862 57.946 126.289 57.7908 126.73 57.7908C127.171 57.7908 127.598 57.946 127.935 58.2291C128.087 58.371 128.207 58.5421 128.29 58.732C128.372 58.9218 128.414 59.1264 128.414 59.3332C128.414 59.54 128.372 59.7445 128.29 59.9344C128.207 60.1243 128.087 60.2954 127.935 60.4373ZM128.201 72.0053C127.45 72.0419 126.709 71.8301 126.093 71.4031C125.84 71.2111 125.637 70.9617 125.501 70.6757C125.364 70.3898 125.299 70.0756 125.31 69.7595V62.9341C125.304 62.8848 125.309 62.8349 125.325 62.7879C125.342 62.741 125.368 62.6984 125.404 62.6633C125.439 62.6282 125.482 62.6016 125.529 62.5855C125.576 62.5693 125.627 62.5641 125.676 62.5702H127.797C128.036 62.5702 128.15 62.6957 128.15 62.9341V68.8561C128.15 69.3329 128.365 69.5713 128.794 69.5713C128.985 69.5781 129.177 69.557 129.362 69.5085C129.614 69.5085 129.753 69.5838 129.766 69.8096L129.955 71.378C129.964 71.4237 129.963 71.4708 129.952 71.5162C129.942 71.5616 129.921 71.6041 129.893 71.641C129.864 71.6778 129.828 71.7081 129.786 71.7299C129.745 71.7516 129.699 71.7642 129.652 71.7669C129.183 71.9203 128.694 72.0007 128.201 72.0053Z" fill="#1E1B1B"/>
<path d="M137.756 62.2691C138.418 62.243 139.079 62.3496 139.699 62.5823C140.319 62.8151 140.886 63.1694 141.365 63.6241C142.258 64.5763 142.754 65.8294 142.754 67.1309C142.754 68.4324 142.258 69.6855 141.365 70.6377C140.888 71.0964 140.322 71.4541 139.702 71.6892C139.081 71.9243 138.419 72.0318 137.756 72.0052C136.81 72.0261 135.884 71.7398 135.118 71.1897V75.7191C135.118 75.9574 134.991 76.0704 134.752 76.0704H132.631C132.583 76.0794 132.533 76.0765 132.486 76.062C132.439 76.0475 132.396 76.0219 132.361 75.9873C132.326 75.9527 132.301 75.9102 132.286 75.8635C132.272 75.8167 132.269 75.7672 132.278 75.7191V65.4308C132.293 65.3302 132.284 65.2275 132.251 65.1309C132.219 65.0344 132.165 64.9466 132.092 64.8747C132.02 64.8028 131.932 64.7487 131.835 64.7167C131.738 64.6847 131.634 64.6758 131.533 64.6906H131.117C130.839 64.6906 130.7 64.5902 130.7 64.3894V62.9089C130.693 62.8173 130.719 62.7262 130.772 62.6509C130.824 62.5756 130.902 62.5205 130.99 62.4949C131.427 62.3371 131.889 62.2606 132.353 62.2691C132.817 62.2283 133.282 62.3259 133.689 62.5495C134.096 62.773 134.426 63.1122 134.638 63.5237C135.045 63.1149 135.531 62.7928 136.067 62.5771C136.603 62.3613 137.177 62.2565 137.756 62.2691ZM135.787 69.0066C136.012 69.2404 136.282 69.4265 136.581 69.5536C136.881 69.6807 137.203 69.7462 137.528 69.7462C137.854 69.7462 138.176 69.6807 138.475 69.5536C138.775 69.4265 139.045 69.2404 139.27 69.0066C139.744 68.481 139.993 67.7923 139.964 67.087C139.998 66.381 139.748 65.6908 139.27 65.1673C139.045 64.9335 138.775 64.7475 138.475 64.6203C138.176 64.4932 137.854 64.4277 137.528 64.4277C137.203 64.4277 136.881 64.4932 136.581 64.6203C136.282 64.7475 136.012 64.9335 135.787 65.1673C135.327 65.7 135.088 66.386 135.118 67.087C135.092 67.7874 135.331 68.472 135.787 69.0066Z" fill="#1E1B1B"/>
<path d="M148.711 72.0053C147.578 72.0516 146.455 71.7821 145.467 71.2274C145.071 70.9902 144.734 70.6675 144.48 70.283C144.227 69.8986 144.064 69.4623 144.003 69.0066C144.003 68.7557 144.092 68.6302 144.369 68.6302H146.225C146.313 68.6337 146.398 68.6612 146.472 68.7099C146.545 68.7586 146.604 68.8266 146.641 68.9063C146.906 69.5838 147.6 69.9225 148.711 69.9225C149.099 69.9401 149.484 69.8626 149.834 69.6967C149.955 69.6425 150.059 69.5566 150.135 69.4483C150.21 69.3401 150.255 69.2134 150.264 69.0819C150.264 68.7557 150.062 68.5299 149.658 68.3793C149.179 68.2208 148.683 68.1156 148.181 68.0656C147.586 67.9987 146.996 67.8939 146.414 67.752C145.848 67.6247 145.334 67.3319 144.937 66.9113C144.704 66.6255 144.532 66.2949 144.432 65.9402C144.332 65.5855 144.307 65.2142 144.358 64.8493C144.409 64.4845 144.535 64.134 144.728 63.8197C144.921 63.5053 145.177 63.2337 145.48 63.0219C146.39 62.4458 147.457 62.1652 148.534 62.2189C149.577 62.1838 150.609 62.4403 151.513 62.9591C151.877 63.1642 152.191 63.4474 152.431 63.7882C152.671 64.129 152.832 64.5187 152.902 64.929C152.902 65.1799 152.788 65.3054 152.561 65.3054H150.693C150.614 65.31 150.536 65.2909 150.468 65.2506C150.401 65.2103 150.347 65.1507 150.314 65.0795C150.189 64.7824 149.954 64.5443 149.658 64.4146C149.323 64.2406 148.95 64.1542 148.572 64.1636C148.202 64.1436 147.833 64.217 147.499 64.3769C147.382 64.422 147.281 64.5011 147.209 64.604C147.137 64.7068 147.097 64.8288 147.096 64.9541C147.104 65.1256 147.167 65.2901 147.276 65.4234C147.385 65.5566 147.534 65.6516 147.701 65.6943C148.186 65.8759 148.69 66.0022 149.203 66.0707C149.794 66.1479 150.379 66.2568 150.958 66.3969C151.524 66.5242 152.038 66.817 152.435 67.2376C152.647 67.4692 152.811 67.7404 152.917 68.0355C153.023 68.3305 153.069 68.6435 153.053 68.9564C153.064 69.3902 152.962 69.8193 152.756 70.2019C152.55 70.5845 152.248 70.9076 151.879 71.1396C150.936 71.7413 149.831 72.0433 148.711 72.0053Z" fill="#1E1B1B"/>
<path d="M166.395 71.3778C166.402 71.4224 166.4 71.4679 166.389 71.5117C166.378 71.5555 166.359 71.5968 166.332 71.633C166.305 71.6692 166.271 71.6997 166.232 71.7227C166.192 71.7457 166.149 71.7606 166.104 71.7668C165.643 71.9163 165.163 71.9967 164.678 72.0051C164.198 72.0545 163.714 71.98 163.272 71.7888C162.829 71.5975 162.444 71.2961 162.154 70.9136C161.262 71.6756 160.109 72.0665 158.935 72.0051C158.39 72.0301 157.845 71.9414 157.337 71.7448C156.828 71.5482 156.366 71.2479 155.982 70.8634C155.599 70.4605 155.303 69.985 155.11 69.4654C154.917 68.9458 154.831 68.3929 154.858 67.8397V62.9339C154.858 62.6955 154.972 62.5701 155.212 62.5701H157.332C157.572 62.5701 157.685 62.6955 157.685 62.9339V67.4633C157.662 68.0276 157.856 68.5794 158.228 69.0065C158.414 69.2022 158.639 69.356 158.89 69.4577C159.14 69.5595 159.409 69.6067 159.68 69.5962C159.956 69.6082 160.233 69.5656 160.493 69.4709C160.753 69.3761 160.991 69.2311 161.194 69.0441C161.387 68.8471 161.536 68.613 161.634 68.3561C161.732 68.0993 161.775 67.8253 161.762 67.5511V62.9339C161.762 62.6955 161.876 62.5701 162.116 62.5701H164.261C164.501 62.5701 164.615 62.6955 164.615 62.9339V68.8434C164.615 69.3327 164.829 69.5711 165.246 69.5711C165.442 69.5786 165.637 69.5575 165.827 69.5084C165.874 69.4951 165.924 69.4927 165.973 69.5014C166.022 69.5101 166.068 69.5297 166.108 69.5586C166.148 69.5876 166.181 69.6252 166.205 69.6687C166.228 69.7121 166.241 69.7603 166.243 69.8095L166.395 71.3778Z" fill="#1E1B1B"/>
<path d="M186.451 71.3779C186.462 71.4229 186.463 71.4697 186.454 71.5151C186.445 71.5605 186.426 71.6033 186.398 71.6405C186.37 71.6777 186.334 71.7083 186.293 71.7302C186.252 71.752 186.207 71.7645 186.16 71.7669C185.691 71.9185 185.202 71.9989 184.709 72.0053C183.958 72.0438 183.216 71.8318 182.601 71.403C182.335 71.2194 182.118 70.9733 181.971 70.6866C181.823 70.3999 181.749 70.0814 181.755 69.7594V66.811C181.782 66.2483 181.592 65.6967 181.225 65.2677C181.048 65.0716 180.829 64.917 180.585 64.815C180.34 64.7131 180.076 64.6663 179.811 64.678C179.573 64.6691 179.335 64.7141 179.116 64.8097C178.898 64.9054 178.704 65.0491 178.549 65.2301C178.216 65.6505 178.046 66.1759 178.07 66.7106V71.3403C178.07 71.5787 177.956 71.7042 177.716 71.7042H175.583C175.534 71.7103 175.483 71.705 175.436 71.6889C175.389 71.6728 175.346 71.6462 175.311 71.6111C175.275 71.576 175.249 71.5334 175.232 71.4864C175.216 71.4395 175.211 71.3895 175.217 71.3403V66.811C175.245 66.2545 175.07 65.7067 174.725 65.2677C174.571 65.0833 174.378 64.9349 174.16 64.8329C173.942 64.731 173.704 64.6781 173.463 64.678C173.205 64.6677 172.948 64.7115 172.709 64.8067C172.47 64.9018 172.254 65.0461 172.074 65.2301C171.713 65.6371 171.527 66.1687 171.557 66.7106V71.3403C171.563 71.3895 171.558 71.4395 171.541 71.4864C171.525 71.5334 171.498 71.576 171.463 71.6111C171.428 71.6462 171.385 71.6728 171.338 71.6889C171.291 71.705 171.24 71.7103 171.191 71.7042H169.133C168.894 71.7042 168.78 71.5787 168.78 71.3403V65.4308C168.795 65.3302 168.786 65.2275 168.754 65.131C168.721 65.0344 168.667 64.9467 168.595 64.8747C168.522 64.8028 168.434 64.7487 168.337 64.7167C168.24 64.6848 168.136 64.6758 168.035 64.6906H167.619C167.341 64.6906 167.202 64.5902 167.202 64.3895V62.909C167.196 62.8173 167.221 62.7263 167.274 62.6509C167.327 62.5756 167.404 62.5205 167.492 62.4949C167.929 62.3371 168.391 62.2606 168.856 62.2691C169.302 62.2313 169.749 62.3197 170.147 62.5239C170.544 62.7281 170.875 63.04 171.102 63.4234C171.528 63.0222 172.033 62.7126 172.584 62.514C173.136 62.3154 173.723 62.232 174.308 62.2691C174.877 62.2415 175.444 62.3475 175.964 62.5786C176.484 62.8097 176.941 63.1593 177.3 63.599C177.717 63.1477 178.231 62.7943 178.803 62.5643C179.375 62.3343 179.991 62.2335 180.607 62.2691C181.158 62.2434 181.708 62.3317 182.223 62.5282C182.738 62.7247 183.206 63.0253 183.598 63.4108C183.982 63.8129 184.279 64.2883 184.472 64.8081C184.665 65.3278 184.75 65.8812 184.721 66.4346V68.8561C184.721 69.3328 184.936 69.5712 185.34 69.5712C185.535 69.5803 185.731 69.5591 185.92 69.5085C186.181 69.5085 186.32 69.6089 186.337 69.8096L186.451 71.3779Z" fill="#1E1B1B"/>
<path d="M38.4465 60.9393C39.3777 57.2188 41.5343 53.9149 44.573 51.5538C47.6117 49.1926 51.3577 47.9099 55.2146 47.9099C59.0716 47.9099 62.8176 49.1926 65.8563 51.5538C68.895 53.9149 71.0516 57.2188 71.9828 60.9393H70.4682C67.9131 60.9019 65.4104 61.6609 63.3116 63.1098C63.1905 63.197 63.064 63.2766 62.9329 63.3482H62.7562C62.6252 63.2766 62.4987 63.197 62.3776 63.1098C60.2601 61.6945 57.7663 60.9385 55.2146 60.9385C52.663 60.9385 50.1692 61.6945 48.0517 63.1098C47.9306 63.197 47.8041 63.2766 47.6731 63.3482H47.4964C47.3653 63.2766 47.2388 63.197 47.1177 63.1098C45.0188 61.6609 42.5162 60.9019 39.9611 60.9393H38.4465ZM67.7419 68.806C68.5194 68.2041 69.4831 67.8892 70.4682 67.9152H72.5003V63.8877H70.4682C68.733 63.8669 67.0374 64.4038 65.634 65.4184C64.8443 65.9972 63.8889 66.3094 62.9077 66.3094C61.9265 66.3094 60.9711 65.9972 60.1814 65.4184C58.7424 64.4227 57.0311 63.8889 55.2777 63.8889C53.5244 63.8889 51.8131 64.4227 50.3741 65.4184C49.5844 65.9972 48.629 66.3094 47.6478 66.3094C46.6666 66.3094 45.7112 65.9972 44.9215 65.4184C43.5008 64.3908 41.7809 63.8532 40.0242 63.8877H37.929V67.9152H39.9611C40.9462 67.8892 41.9099 68.2041 42.6874 68.806C44.1238 69.8024 45.8332 70.3367 47.5847 70.3367C49.3363 70.3367 51.0456 69.8024 52.482 68.806C53.2605 68.206 54.2235 67.8913 55.2083 67.9152C56.1938 67.8871 57.1581 68.2022 57.9347 68.806C59.3737 69.8018 61.0849 70.3356 62.8383 70.3356C64.5916 70.3356 66.3029 69.8018 67.7419 68.806ZM67.7419 76.0078C68.5194 75.4059 69.4831 75.091 70.4682 75.117H72.5003V71.0895H70.4682C68.733 71.0686 67.0374 71.6055 65.634 72.6202C64.8443 73.199 63.8889 73.5112 62.9077 73.5112C61.9265 73.5112 60.9711 73.199 60.1814 72.6202C58.7424 71.6245 57.0311 71.0907 55.2777 71.0907C53.5244 71.0907 51.8131 71.6245 50.3741 72.6202C49.5844 73.199 48.629 73.5112 47.6478 73.5112C46.6666 73.5112 45.7112 73.199 44.9215 72.6202C43.5008 71.5926 41.7809 71.055 40.0242 71.0895H37.929V75.117H39.9611C40.9462 75.091 41.9099 75.4059 42.6874 76.0078C44.1238 77.0042 45.8332 77.5385 47.5847 77.5385C49.3363 77.5385 51.0456 77.0042 52.482 76.0078C53.2605 75.4077 54.2235 75.0931 55.2083 75.117C56.1938 75.0889 57.1581 75.404 57.9347 76.0078C59.3737 77.0036 61.0849 77.5373 62.8383 77.5373C64.5916 77.5373 66.3029 77.0036 67.7419 76.0078Z" fill="#1E1B1B"/>
</svg>
