<svg width="23" height="15" viewBox="0 0 23 15" fill="none" xmlns="http://www.w3.org/2000/svg">
<path d="M21.1292 8.36377C21.6814 8.36377 22.1292 7.91605 22.1292 7.36377C22.1292 6.81148 21.6814 6.36377 21.1292 6.36377L21.1292 8.36377ZM0.293011 6.65666C-0.0975132 7.04719 -0.0975132 7.68035 0.293011 8.07087L6.65697 14.4348C7.0475 14.8254 7.68066 14.8254 8.07119 14.4348C8.46171 14.0443 8.46171 13.4111 8.07119 13.0206L2.41433 7.36377L8.07119 1.70691C8.46171 1.31639 8.46171 0.683225 8.07119 0.292701C7.68066 -0.0978238 7.0475 -0.0978239 6.65697 0.2927L0.293011 6.65666ZM21.1292 6.36377L1.00012 6.36377L1.00012 8.36377L21.1292 8.36377L21.1292 6.36377Z" fill="#1E1B1B"/>
</svg>
